<svg xmlns="http://www.w3.org/2000/svg" width="170" height="72">
  <script xmlns="" />
  <g fill="none" fill-rule="evenodd">
    <path d="M1 .6h168v71H1z" />
    <path
      d="M102.2 63.4c-1 0-1.9-.7-1.9-2.1 0-1.3.9-2 1.9-2 1.1 0 1.5.6 1.7 1.2l1.5-.5c-.3-1.1-1.3-2.2-3.2-2.2-2 0-3.5 1.5-3.5 3.5s1.5 3.5 3.6 3.5c1.8 0 2.8-1.1 3.2-2.1l-1.5-.5c-.2.5-.7 1.2-1.8 1.2zm16.8-7.5h1.6v8.8H119zm2.9 0h1.6v8.8h-1.6zm2.8 2.1h1.6v6.6h-1.6zm14.2-.2c-.8 0-1.6.3-2 1.1V58h-1.6v6.6h1.6v-3.8c0-.9.5-1.6 1.4-1.6 1 0 1.4.7 1.4 1.5v3.9h1.6v-4.2c.1-1.4-.7-2.6-2.4-2.6zm6.9 5.6c-1 0-1.9-.7-1.9-2.1 0-1.3.9-2 1.9-2 1 0 1.5.6 1.7 1.2l1.5-.5c-.3-1.1-1.3-2.2-3.2-2.2-2 0-3.5 1.5-3.5 3.5s1.5 3.5 3.6 3.5c1.8 0 2.8-1.1 3.2-2.1l-1.4-.5c-.4.5-.9 1.2-1.9 1.2zm10.2-2.1c0-2.1-1.2-3.4-3.4-3.4-1.7 0-3.3 1.4-3.3 3.5 0 2.2 1.7 3.5 3.5 3.5 1.6 0 2.7-.9 3.1-2.1l-1.4-.4c-.2.7-.7 1.2-1.7 1.2s-1.8-.7-1.9-1.7h5c.1-.2.1-.4.1-.6zm-5-.7c.1-.7.7-1.4 1.7-1.4 1.1 0 1.7.7 1.7 1.4H151zM111 58h-1.9v-2.1h-1.7V58h-1.8v1.4h1.8v5.2h1.7v-5.2h1.9zm13.7-2.1h1.6v1.6h-1.6zm-28.4 3c-.2-.4-.8-1.1-2-1.1-2 0-3.3 1.6-3.3 3.5 0 2 1.3 3.5 3.3 3.5 1 0 1.7-.5 2-1.1v.9h1.6V58h-1.6v.9zm-1.9 4.6c-1.1 0-1.9-.9-1.9-2.2 0-1.3.8-2.1 1.9-2.1 1.1 0 1.8.8 1.8 2.1.1 1.3-.7 2.2-1.8 2.2zm21.8-4.6c-.2-.4-.8-1.1-2-1.1-2 0-3.3 1.6-3.3 3.5 0 2 1.3 3.5 3.3 3.5 1 0 1.7-.5 2-1.1v.9h1.6V58h-1.6v.9zm-1.8 4.6c-1.1 0-1.9-.9-1.9-2.2 0-1.3.8-2.1 1.9-2.1 1.1 0 1.8.8 1.8 2.1.1 1.3-.7 2.2-1.8 2.2zm18.1-4.6c-.2-.4-.8-1.1-2-1.1-2 0-3.3 1.6-3.3 3.5 0 2 1.3 3.5 3.3 3.5 1 0 1.7-.5 2-1.1v.9h1.6V58h-1.6v.9zm-1.8 4.6c-1.1 0-1.9-.9-1.9-2.2 0-1.3.8-2.1 1.9-2.1 1.1 0 1.8.8 1.8 2.1s-.8 2.2-1.8 2.2z"
      fill="#000" fill-rule="nonzero" />
    <path
      d="M45.2 46.5c-10 0-16.9-3.6-24.2-9.9 7.3-6.3 14.2-9.9 24.2-9.9 13.5 0 20.6 6.5 23.9 9.9-3.3 3.4-10.5 9.9-23.9 9.9m0-25.9c-10.7 0-20.1 4.2-28.4 11.9L4.9 20.8.6 25.2l11.7 11.5L.6 48.2l4.3 4.4 11.9-11.7c8.4 7.7 17.7 11.9 28.4 11.9 20.9 0 31.4-16 31.4-16S66.1 20.6 45.2 20.6m16.1 16c0 2-1.7 3.7-3.7 3.7s-3.7-1.7-3.7-3.7 1.7-3.7 3.7-3.7 3.7 1.7 3.7 3.7M21.4 49.5h-6.8c5.2 13.2 18 22.5 33 22.5C67.2 72 83 56.1 83 36.6 83 17 67.2 1.1 47.6 1.1c-15 0-27.8 9.3-33 22.5h6.8c4.8-9.7 14.7-16.3 26.2-16.3 16.1 0 29.2 13 29.2 29.3 0 16.2-13.1 29.3-29.2 29.3-11.5 0-21.5-6.7-26.2-16.4"
      fill="red" fill-rule="nonzero" />
    <path
      d="M100.6 19.5c7.7 0 14.9 3.4 14.9 13.2 0 10.7-7 14-13.7 14H91.4V19.5h9.2zM98.2 25v16.3h3.5c3.2 0 6.6-1.5 6.6-8.5 0-4.9-2.1-7.7-7.6-7.7h-2.5V25zm44.6 1.9l-6.6 1.7c-1.2-2.8-2.8-4.1-5.7-4.1-4 0-6.5 3.1-6.5 8.6s2.3 8.8 6.5 8.8c3.3 0 5.1-1.7 6.3-4.7l6.5 1.9c-2.2 5.6-7 8.4-13.2 8.4-6.6 0-13.2-4.2-13.2-14.4 0-10 6.5-14.3 13.5-14.3 5.3 0 10.2 2.1 12.4 8.1zm18.1 15.9h-9.6l-1.1 4h-7l8.7-27.2h8.6l8.8 27.2H162l-1.1-4zm-4.8-18.2l-3.3 12.8h6.7l-3.4-12.8z"
      fill="#000" fill-rule="nonzero" />
  </g>
  <script xmlns="" />
</svg>
